<mxfile
  host="Electron" 
  agent="Mozilla/5.0 (Macintosh; Intel Mac OS X 10_15_7) AppleWebKit/537.36 (KHTML, like Gecko) draw.io/25.0.2 Chrome/128.0.6613.186 Electron/32.2.5 Safari/537.36" 
  version="25.0.2"
  >
  <diagram
    name="-"
    >
    <mxGraphModel
      grid="1" 
      gridSize="10" 
      guides="1" 
      tooltips="1" 
      connect="1" 
      arrows="1" 
      fold="1" 
      page="1" 
      pageScale="1" 
      pageWidth="1" 
      pageHeight="1" 
      math="0" 
      shadow="0"
      >
      <root>
        <mxCell
          id="page"
          />
        <mxCell
          id="root" 
          parent="page"
          />
        <mxCell
          style="verticalAlign=top;aspect=fixed;align=center;spacingLeft=5;spacingRight=5;spacingBottom=5;strokeColor=none;" 
          id="shape_" 
          parent="root" 
          value=" " 
          vertex="1"
          >
          <mxGeometry
            as="geometry" 
            width="120" 
            height="120" 
            x="0" 
            y="0"
            />
          </mxCell>
        <mxCell
          style="rounded=1;whiteSpace=wrap;verticalAlign=top;align=center;sketch=0;html=1;labelPosition=center;verticalLabelPosition=bottom;spacingTop=-6;fontSize=11;fontStyle=1;fontColor=#999999;shape=image;aspect=fixed;imageAspect=0;image=data:image/svg+xml,PHN2ZyB4bWxucz0iaHR0cDovL3d3dy53My5vcmcvMjAwMC9zdmciIGlkPSJzdmc4OTYzNCIgdmVyc2lvbj0iMS4xIiB2aWV3Qm94PSIwIDAgMTI4Ljk4NjQzIDEzMi4yMDY5MSIgaGVpZ2h0PSIxMzIuMjA2OTFtbSIgd2lkdGg9IjEyOC45ODY0M21tIj4mI3hhOyAgJiN4YTsgIDxkZWZzIGlkPSJkZWZzODk2MzEiLz4mI3hhOyAgPGcgdHJhbnNmb3JtPSJ0cmFuc2xhdGUoLTQyLjM0MzE1MSwtODAuNzIwMTM1KSIgaWQ9ImxheWVyMSI+JiN4YTsgICAgPHBhdGggdHJhbnNmb3JtPSJzY2FsZSgwLjI2NDU4MzMzKSIgZD0ibSAzMTAuNzI0NjEsMzA1LjA4Mzk4IGEgNDMuMTAyNzA0LDQzLjEwMjcwNCAwIDAgMCAtNDMuMTAzNTIsNDMuMTAxNTcgNDMuMTAyNzA0LDQzLjEwMjcwNCAwIDAgMCA0My4xMDM1Miw0My4xMDM1MSA0My4xMDI3MDQsNDMuMTAyNzA0IDAgMCAwIDMuNzM0MzcsLTAuMTY2MDEgbCA1My4yNDAyNCw1NC43NzkyOSAtNzEuNTQ0OTIsNzMuNTA5NzcgLTQ5LjcyNjU3LC01MS41OTc2NiBhIDQzLjEwMjcwNCw0My4xMDI3MDQgMCAwIDAgMC43NjU2MywtOC4wNzIyNiA0My4xMDI3MDQsNDMuMTAyNzA0IDAgMCAwIC00My4xMDM1MiwtNDMuMTAxNTcgNDMuMTAyNzA0LDQzLjEwMjcwNCAwIDAgMCAtNDMuMTAxNTYsNDMuMTAxNTcgNDMuMTAyNzA0LDQzLjEwMjcwNCAwIDAgMCA0My4xMDE1Niw0My4xMDM1MSA0My4xMDI3MDQsNDMuMTAyNzA0IDAgMCAwIDcuMjY1NjMsLTAuNjIxMDkgbCAxNTYuNDc2NTYsMTYyLjM1OTM3IC01Mi44NTc0Miw1NC4xMTMyOSBhIDQzLjEwMjcwNCw0My4xMDI3MDQgMCAwIDAgLTMuOTA2MjUsLTAuMTc5NjkgNDMuMTAyNzA0LDQzLjEwMjcwNCAwIDAgMCAtNDMuMTAxNTYsNDMuMTAxNTYgNDMuMTAyNzA0LDQzLjEwMjcwNCAwIDAgMCA0My4xMDE1Niw0My4xMDM1MiA0My4xMDI3MDQsNDMuMTAyNzA0IDAgMCAwIDQzLjEwMzUyLC00My4xMDM1MiA0My4xMDI3MDQsNDMuMTAyNzA0IDAgMCAwIC0xLjQ4NjMzLC0xMS4yMTA5NCBMIDQ4Ni4xMTkxNCw2MTMuODEyNSA0NTAuOTY2OCw1NzkuNDc4NTIgNDAyLjE3OTY5LDYyOS40MTYwMiAzMzAuMjczNDQsNTU0LjgwODU5IDQ4OS42ODc1LDM5MS4wMzEyNSBhIDQzLjEwMjcwNCw0My4xMDI3MDQgMCAwIDAgNy4wNjgzNiwwLjYwMzUyIDQzLjEwMjcwNCw0My4xMDI3MDQgMCAwIDAgNDMuMTAzNTIsLTQzLjEwMTU3IDQzLjEwMjcwNCw0My4xMDI3MDQgMCAwIDAgLTQzLjEwMzUyLC00My4xMDM1MSA0My4xMDI3MDQsNDMuMTAyNzA0IDAgMCAwIC00My4xMDE1Niw0My4xMDM1MSA0My4xMDI3MDQsNDMuMTAyNzA0IDAgMCAwIDAuODIyMjYsOC4yMjQ2MSBsIC01Mi40ODgyOCw1My45MjU3OCAtNDkuNjg5NDUsLTUxLjEzMDg2IGEgNDMuMTAyNzA0LDQzLjEwMjcwNCAwIDAgMCAxLjUyOTI5LC0xMS4zNjcxOCA0My4xMDI3MDQsNDMuMTAyNzA0IDAgMCAwIC00My4xMDM1MSwtNDMuMTAxNTcgeiBtIDI5My43MTg3NSwxMTEuNzc5MyBhIDQzLjEwMjcwNCw0My4xMDI3MDQgMCAwIDAgLTQzLjEwMzUyLDQzLjEwMTU2IDQzLjEwMjcwNCw0My4xMDI3MDQgMCAwIDAgMC4zMjgxMyw1LjA1ODYgbCAtNTMuMDMzMiw1NC44OTA2MiAtNDkuNDg4MjksLTUwLjIxMDk0IC0zNC45OTgwNCwzNC40ODgyOSAxMzcuMzM3ODksMTM5LjM0NzY1IEEgNDMuMTAyNzA0LDQzLjEwMjcwNCAwIDAgMCA1NjAuOTk2MDksNjUwIDQzLjEwMjcwNCw0My4xMDI3MDQgMCAwIDAgNjA0LjA5OTYxLDY5My4xMDM1MiA0My4xMDI3MDQsNDMuMTAyNzA0IDAgMCAwIDY0Ny4yMDMxMiw2NTAgYSA0My4xMDI3MDQsNDMuMTAyNzA0IDAgMCAwIC00My4xMDM1MSwtNDMuMTAxNTYgNDMuMTAyNzA0LDQzLjEwMjcwNCAwIDAgMCAtOC44MTI1LDAuOTMzNTkgbCAtNTIuMTUwMzksLTUyLjkxNDA2IDUxLjI1NTg2LC01My4wNTQ2OSBhIDQzLjEwMjcwNCw0My4xMDI3MDQgMCAwIDAgMTAuMDUwNzgsMS4yMDUwOCA0My4xMDI3MDQsNDMuMTAyNzA0IDAgMCAwIDQzLjEwMTU2LC00My4xMDM1MiA0My4xMDI3MDQsNDMuMTAyNzA0IDAgMCAwIC00My4xMDE1NiwtNDMuMTAxNTYgeiBtIC0zNjYuMTc3NzQsMTYxLjU5NTcgLTI3LjQwODIsMjkuMzI4MTMgYSA0My4xMDI3MDQsNDMuMTAyNzA0IDAgMCAwIC03LjcxODc1LC0wLjY5NzI3IDQzLjEwMjcwNCw0My4xMDI3MDQgMCAwIDAgLTQzLjEwMTU2LDQzLjEwMzUyIDQzLjEwMjcwNCw0My4xMDI3MDQgMCAwIDAgNDMuMTAxNTYsNDMuMTAxNTYgNDMuMTAyNzA0LDQzLjEwMjcwNCAwIDAgMCA0My4xMDM1MiwtNDMuMTAxNTYgNDMuMTAyNzA0LDQzLjEwMjcwNCAwIDAgMCAtMC42NzM4MywtNy41ODM5OCBsIDI4LjU5NTcsLTMwLjYwNTQ3IHogbSAyMjEuODEwNTUsMTA5LjQ2NjggLTM1LjQzOTQ1LDM0LjAyMzQ0IDI5LjAyNTM5LDMwLjIzNjMzIGEgNDMuMTAyNzA0LDQzLjEwMjcwNCAwIDAgMCAtMS4wNTg1OSw5LjQ3NDYxIDQzLjEwMjcwNCw0My4xMDI3MDQgMCAwIDAgNDMuMTAxNTYsNDMuMTAzNTEgNDMuMTAyNzA0LDQzLjEwMjcwNCAwIDAgMCA0My4xMDM1MSwtNDMuMTAzNTEgNDMuMTAyNzA0LDQzLjEwMjcwNCAwIDAgMCAtNDMuMTAzNTEsLTQzLjEwMTU3IDQzLjEwMjcwNCw0My4xMDI3MDQgMCAwIDAgLTUuODI2MTcsMC40MTQwNyB6IiBzdHlsZT0iY29sb3I6IzAwMDAwMDtvcGFjaXR5OjE7ZmlsbDojNDI4NWY0O2ZpbGwtb3BhY2l0eToxO3N0cm9rZS13aWR0aDo0NS4zNTQzO3N0cm9rZS1saW5lam9pbjpyb3VuZDstaW5rc2NhcGUtc3Ryb2tlOm5vbmUiIGlkPSJwYXRoODk3NTciLz4mI3hhOyAgPC9nPiYjeGE7PC9zdmc+;strokeColor=none;" 
          id="anthos_service_mesh_" 
          parent="shape_" 
          value=" " 
          vertex="1"
          >
          <mxGeometry
            as="geometry" 
            width="60" 
            height="60" 
            x="30" 
            y="30"
            />
          </mxCell>
        </root>
      </mxGraphModel>
    </diagram>
  </mxfile>